<?xml version="1.0" encoding="utf-8"?>
<!-- Generator: Adobe Illustrator 16.0.0, SVG Export Plug-In . SVG Version: 6.00 Build 0)  -->
<!DOCTYPE svg PUBLIC "-//W3C//DTD SVG 1.1//EN" "http://www.w3.org/Graphics/SVG/1.1/DTD/svg11.dtd">
<svg version="1.1" id="Шар_1" xmlns="http://www.w3.org/2000/svg" xmlns:xlink="http://www.w3.org/1999/xlink" x="0px" y="0px"
	 width="170.471px" height="148.94px" viewBox="0 0 170.471 148.94" enable-background="new 0 0 170.471 148.94"
	 xml:space="preserve">
<g>
	<path fill="#FFFFFF" d="M144.515,140.236H27.996c-5.349,0-9.702-4.354-9.702-9.701c0-5.35,4.353-9.702,9.702-9.702h5.054v1.563
		h-5.054c-4.487,0-8.138,3.652-8.138,8.139s3.651,8.137,8.138,8.137h116.519c4.486,0,8.137-3.65,8.137-8.137
		s-3.65-8.139-8.137-8.139h-5.055v-1.563h5.055c5.35,0,9.701,4.353,9.701,9.702C154.216,135.883,149.865,140.236,144.515,140.236"/>
	<path fill="#FFFFFF" d="M86.255,127.125c-17.249,0-34.498-1.369-51.626-4.109c-1.446-0.23-2.705-1.008-3.546-2.189
		c-0.813-1.141-1.128-2.518-0.888-3.873c0.5-2.822,3.23-4.754,6.09-4.289c33.158,5.303,66.783,5.303,99.941,0
		c2.861-0.451,5.589,1.467,6.09,4.289c0.241,1.354-0.074,2.728-0.885,3.868c-0.842,1.183-2.102,1.962-3.549,2.194
		C120.753,125.756,103.503,127.125,86.255,127.125 M35.439,114.162c-1.791,0-3.388,1.273-3.705,3.063
		c-0.165,0.94,0.055,1.896,0.623,2.694c0.596,0.836,1.491,1.387,2.519,1.552c34.093,5.454,68.667,5.454,102.758,0
		c1.029-0.165,1.926-0.718,2.521-1.558c0.566-0.795,0.787-1.75,0.62-2.688c-0.353-1.985-2.288-3.34-4.303-3.017
		c-33.323,5.33-67.113,5.33-100.435,0C35.837,114.176,35.637,114.162,35.439,114.162"/>
	<path fill="#FFFFFF" d="M135.252,58.37H37.258c-3.479,0-6.309-2.83-6.309-6.309v-2.646c0-3.478,2.83-6.309,6.309-6.309h10.632
		c-1.014-0.993-1.644-2.377-1.644-3.906v-4.323c0-3.017,2.454-5.471,5.47-5.471h17.753v1.564H51.716
		c-2.153,0-3.906,1.753-3.906,3.907V39.2c0,2.154,1.753,3.906,3.906,3.906H71.49v1.565H37.258c-2.617,0-4.745,2.128-4.745,4.744
		v2.646c0,2.617,2.128,4.745,4.745,4.745h97.994c2.617,0,4.745-2.128,4.745-4.745v-2.646c0-2.616-2.128-4.744-4.745-4.744h-34.459
		v-1.565h20.001c2.152,0,3.906-1.752,3.906-3.906v-4.323c0-2.154-1.754-3.907-3.906-3.907h-17.57v-1.564h17.57
		c3.016,0,5.471,2.454,5.471,5.471V39.2c0,1.529-0.631,2.913-1.645,3.906h10.632c3.479,0,6.31,2.831,6.31,6.309v2.646
		C141.562,55.54,138.732,58.37,135.252,58.37"/>
	<path fill="#FFFFFF" d="M87.017,92.67c-8.529,0-17.059-0.927-25.351-2.781l0.34-1.525c16.363,3.657,33.66,3.657,50.021,0
		l0.342,1.525C104.076,91.743,95.546,92.67,87.017,92.67"/>
	<path fill="#FFFFFF" d="M87.017,85.164c-8.529,0-17.059-0.927-25.351-2.781l0.34-1.525c16.363,3.657,33.66,3.657,50.021,0
		l0.342,1.525C104.076,84.237,95.546,85.164,87.017,85.164"/>
	<path fill="#FFFFFF" d="M74.279,47.649c-3.928-3.449-6.181-8.424-6.181-13.648c0-1.762,0.252-3.503,0.749-5.177l1.5,0.446
		c-0.455,1.529-0.685,3.121-0.685,4.731c0,4.774,2.059,9.32,5.65,12.473L74.279,47.649z"/>
	<path fill="#FFFFFF" d="M98.232,47.65l-1.033-1.176c3.591-3.152,5.65-7.698,5.65-12.472c0-1.25-0.14-2.497-0.414-3.706l1.523-0.347
		c0.302,1.323,0.454,2.686,0.454,4.053C104.413,39.226,102.16,44.201,98.232,47.65"/>
	<path fill="#FFFFFF" d="M86.255,53.886c-7.007,0-12.708-4.104-12.708-9.148c0-4.162,3.892-7.8,9.465-8.849l0.289,1.537
		c-4.822,0.908-8.19,3.915-8.19,7.312c0,4.182,4.999,7.584,11.144,7.584c6.145,0,11.145-3.402,11.145-7.584
		c0-3.397-3.369-6.404-8.19-7.312l0.289-1.537c5.573,1.049,9.465,4.687,9.465,8.849C98.963,49.782,93.262,53.886,86.255,53.886"/>
	<path fill="#FFFFFF" d="M86.255,50.502c-5.029,0-8.969-2.513-8.969-5.72c0-0.432,0.35-0.782,0.782-0.782s0.782,0.35,0.782,0.782
		c0,2.253,3.391,4.156,7.405,4.156c4.014,0,7.404-1.903,7.404-4.156C93.66,44.35,94.01,44,94.443,44c0.432,0,0.781,0.35,0.781,0.782
		C95.224,47.989,91.285,50.502,86.255,50.502"/>
	<path fill="#FFFFFF" d="M86.255,41.386c-2.189,0-3.971-1.781-3.971-3.971c0-2.189,1.782-3.971,3.971-3.971
		c2.189,0,3.971,1.782,3.971,3.971C90.226,39.605,88.445,41.386,86.255,41.386 M86.255,35.008c-1.327,0-2.407,1.08-2.407,2.407
		c0,1.327,1.08,2.407,2.407,2.407c1.328,0,2.407-1.08,2.407-2.407C88.663,36.088,87.583,35.008,86.255,35.008"/>
	<path fill="#FFFFFF" d="M80.576,34.417h-3.327c-0.432,0-0.782-0.35-0.782-0.782c0-0.432,0.35-0.782,0.782-0.782h3.327
		c0.433,0,0.782,0.35,0.782,0.782C81.358,34.066,81.009,34.417,80.576,34.417"/>
	<path fill="#FFFFFF" d="M95.261,34.417h-3.327c-0.432,0-0.782-0.35-0.782-0.782c0-0.432,0.351-0.782,0.782-0.782h3.327
		c0.432,0,0.782,0.35,0.782,0.782C96.043,34.066,95.693,34.417,95.261,34.417"/>
	<path fill="#FFFFFF" d="M103.295,30.905c-2.06,0-4.029-0.91-5.388-2.463c-3.196,1.284-6.793,0.012-8.586-2.752
		c-1.699,0.867-3.721,1.025-5.566,0.381c-1.338,1.903-3.519,3.06-5.842,3.06c-1.385,0-2.716-0.404-3.886-1.174
		c-1.32,1.204-3.038,1.884-4.812,1.884c-3.955,0-7.172-3.217-7.172-7.172c0-2.748,1.618-5.271,4.083-6.454
		c0.034-3.925,3.238-7.108,7.172-7.108c0.344,0,0.692,0.03,1.062,0.094c0.792-3.142,3.632-5.419,6.925-5.419
		c2.522,0,4.811,1.307,6.103,3.409c1.305-1.163,2.975-1.812,4.725-1.812c3.672,0,6.707,2.773,7.123,6.334
		c0.418-0.081,0.822-0.121,1.219-0.121c3.656,0,6.705,2.772,7.103,6.381c1.829,1.351,2.91,3.478,2.91,5.761
		C110.467,27.688,107.25,30.905,103.295,30.905 M98.384,26.486l0.389,0.535c1.074,1.474,2.723,2.32,4.522,2.32
		c3.092,0,5.608-2.515,5.608-5.607c0-1.885-0.944-3.634-2.525-4.677l-0.328-0.217l-0.021-0.392
		c-0.168-2.967-2.617-5.292-5.574-5.292c-0.535,0-1.1,0.1-1.727,0.303l-1.054,0.343l0.047-1.279c0-3.064-2.517-5.58-5.608-5.58
		c-1.664,0-3.236,0.756-4.316,2.075l-0.83,1.012l-0.499-1.21c-0.87-2.11-2.904-3.474-5.182-3.474c-2.796,0-5.173,2.104-5.532,4.893
		l-0.114,0.892l-0.867-0.236c-0.561-0.153-1.029-0.224-1.474-0.224c-3.092,0-5.608,2.516-5.608,5.608
		c0.027,0.225,0.037,0.302,0.042,0.379l0.039,0.578l-0.542,0.207c-2.2,0.837-3.622,2.888-3.622,5.226
		c0,3.092,2.516,5.608,5.608,5.608c1.588,0,3.062-0.664,4.148-1.87l0.495-0.546l0.575,0.459c1.02,0.816,2.223,1.247,3.48,1.247
		c1.99,0,3.848-1.093,4.85-2.85l0.354-0.62l0.65,0.296c1.798,0.818,3.83,0.624,5.409-0.427l0.735-0.49l0.396,0.793
		c1.342,2.686,4.627,3.936,7.484,2.512L98.384,26.486z"/>
	<rect x="40.859" y="57.588" fill="#FFFFFF" width="1.564" height="50.405"/>
	<rect x="61.049" y="57.588" fill="#FFFFFF" width="1.564" height="50.776"/>
	<path fill="#FFFFFF" d="M67.438,117.158c-2.353-6.799-8.769-11.365-15.967-11.365c-5.929,0-11.32,3.023-14.419,8.086l-1.334-0.815
		c3.385-5.532,9.274-8.835,15.753-8.835c7.864,0,14.875,4.99,17.446,12.417L67.438,117.158z"/>
	<rect x="131.828" y="57.588" fill="#FFFFFF" width="1.563" height="50.405"/>
	<rect x="111.637" y="57.588" fill="#FFFFFF" width="1.563" height="50.776"/>
	<path fill="#FFFFFF" d="M106.812,117.158l-1.479-0.513c2.572-7.427,9.583-12.417,17.445-12.417c6.479,0,12.367,3.303,15.754,8.835
		l-1.333,0.817c-3.101-5.064-8.491-8.088-14.421-8.088C115.583,105.793,109.166,110.359,106.812,117.158"/>
	<path fill="#FFFFFF" d="M64.091,64.385h-1.68c-0.432,0-0.781-0.35-0.781-0.782s0.349-0.782,0.781-0.782h1.68
		c0.432,0,0.782,0.35,0.782,0.782S64.523,64.385,64.091,64.385"/>
	<path fill="#FFFFFF" d="M79.884,64.385h-3.877c-0.432,0-0.782-0.35-0.782-0.782s0.35-0.782,0.782-0.782h3.877
		c0.433,0,0.782,0.35,0.782,0.782S80.317,64.385,79.884,64.385 M72.13,64.385h-3.876c-0.433,0-0.783-0.35-0.783-0.782
		s0.35-0.782,0.783-0.782h3.876c0.433,0,0.782,0.35,0.782,0.782S72.563,64.385,72.13,64.385"/>
	<path fill="#FFFFFF" d="M104.29,64.385h-3.877c-0.432,0-0.782-0.35-0.782-0.782s0.351-0.782,0.782-0.782h3.877
		c0.433,0,0.782,0.35,0.782,0.782S104.722,64.385,104.29,64.385 M96.536,64.385h-3.877c-0.433,0-0.782-0.35-0.782-0.782
		s0.35-0.782,0.782-0.782h3.877c0.433,0,0.782,0.35,0.782,0.782S96.968,64.385,96.536,64.385 M88.782,64.385h-3.876
		c-0.433,0-0.783-0.35-0.783-0.782s0.35-0.782,0.783-0.782h3.876c0.433,0,0.782,0.35,0.782,0.782S89.214,64.385,88.782,64.385"/>
	<path fill="#FFFFFF" d="M111.562,64.385h-1.68c-0.432,0-0.781-0.35-0.781-0.782s0.35-0.782,0.781-0.782h1.68
		c0.432,0,0.782,0.35,0.782,0.782S111.994,64.385,111.562,64.385"/>
	<path fill="#FFFFFF" d="M127.722,100.406c-0.434,0-0.783-0.35-0.783-0.782V61.246c0-0.432,0.35-0.782,0.783-0.782
		c0.432,0,0.781,0.35,0.781,0.782v38.378C128.503,100.057,128.154,100.406,127.722,100.406"/>
	<path fill="#FFFFFF" d="M146.238,135.418c-0.25,0-0.495-0.119-0.646-0.34c-0.244-0.355-0.152-0.844,0.205-1.088
		c1.536-1.051,2.322-2.207,2.336-3.432c0.029-2.492-2.994-4.691-3.023-4.713c-0.352-0.252-0.432-0.74-0.182-1.092
		c0.252-0.35,0.74-0.432,1.09-0.182c0.152,0.109,3.714,2.691,3.68,5.996c-0.018,1.77-1.033,3.354-3.018,4.713
		C146.544,135.373,146.39,135.418,146.238,135.418"/>
</g>
</svg>
