<?xml version="1.0" encoding="utf-8"?>
<!-- Generator: Adobe Illustrator 16.0.0, SVG Export Plug-In . SVG Version: 6.00 Build 0)  -->
<!DOCTYPE svg PUBLIC "-//W3C//DTD SVG 1.1//EN" "http://www.w3.org/Graphics/SVG/1.1/DTD/svg11.dtd">
<svg version="1.1" id="Шар_1" xmlns="http://www.w3.org/2000/svg" xmlns:xlink="http://www.w3.org/1999/xlink" x="0px" y="0px"
	 width="170.878px" height="143.146px" viewBox="0 0 170.878 143.146" enable-background="new 0 0 170.878 143.146"
	 xml:space="preserve">
<path fill="none" stroke="#FFFFFF" stroke-miterlimit="10" d="M102.192,3c-13.349,0-25.646,8.051-35.487,21.59
	c-8.591,1.768-16.473,7.716-23.002,16.697c-8.29,1.703-15.751,8.275-21.487,18.088l-0.022,0.014v0.027
	c-2.313,3.963-4.347,8.445-6.035,13.355l-0.007,0.002v0.018c-1.494,4.346-2.714,9.023-3.631,13.951l-0.271,0.072v1.383
	c-0.703,4.096-1.195,8.359-1.453,12.75h-0.004V101c-0.136,2.33-0.208,4.697-0.208,7.094v12.15h150.062v-12.15
	C160.646,50.051,134.476,3,102.192,3z M44.003,98.176l-9.138,0.762c0.382-5.664,1.103-11.135,2.142-16.324l8.77-2.068
	C44.917,86.244,44.318,92.135,44.003,98.176z M46.224,77.725l-8.672,2.32c1.252-5.607,2.865-10.869,4.791-15.674l7.443-2.855
	C48.361,66.691,47.165,72.107,46.224,77.725z M74.97,34.842c3.487,0.168,6.863,1.178,10.071,2.934l-17.276,9.406
	C69.941,42.641,72.353,38.504,74.97,34.842z M50.306,49.492c1.08,0.051,2.145,0.205,3.195,0.455
	c-1.023,2.762-1.975,5.615-2.851,8.553l-7.063,2.924C45.566,56.973,47.822,52.967,50.306,49.492z M66.654,49.578l20.377-10.607
	c3.645,2.398,7.045,5.766,10.11,9.938l-23.819,9.705c-2.048-3.393-4.31-6.367-6.74-8.877C66.605,49.684,66.63,49.631,66.654,49.578z
	 M98.387,50.684c2.524,3.73,4.798,8.018,6.766,12.771L79.194,71c-1.465-3.975-3.158-7.65-5.046-10.973L98.387,50.684z
	 M143.542,52.295l-32.456,9.434c-1.806-4.898-3.887-9.438-6.208-13.547l30.325-11.688C138.312,41.117,141.113,46.426,143.542,52.295
	z M149.8,72.125l-33.969,6.266c-1.066-5.08-2.398-9.926-3.967-14.48l32.785-8.848C146.676,60.361,148.407,66.078,149.8,72.125z
	 M105.967,65.5c1.664,4.322,3.091,8.982,4.225,13.932l-27.177,5.012c-0.871-4.17-1.967-8.143-3.26-11.871L105.967,65.5z
	 M83.345,86.111l27.317-4.484c1.034,4.951,1.794,10.154,2.229,15.557l-27.86,1.545C84.693,94.375,84.123,90.156,83.345,86.111z
	 M116.291,80.703l34.158-5.607c1.314,6.313,2.262,12.957,2.796,19.852l-34.828,1.93C118.002,91.293,117.284,85.885,116.291,80.703z
	 M133.514,34.092l-29.778,12.131c-2.646-4.379-5.576-8.205-8.731-11.4l25.603-13.326C125.265,24.502,129.606,28.776,133.514,34.092z
	 M104.515,16.467c4.63,0,9.112,1.197,13.363,3.43L93.367,33.242c-3.4-3.13-7.04-5.533-10.858-7.099
	C89.135,19.958,96.609,16.467,104.515,16.467z M35.648,55.416c-1.55,3.457-2.945,7.143-4.179,11.02l-5.274,2.184
	C28.858,63.184,32.064,58.688,35.648,55.416z M25.099,70.98l5.638-2.16c-1.302,4.422-2.396,9.07-3.247,13.918l-6.87,1.838
	C21.781,79.656,23.291,75.086,25.099,70.98z M20.171,86.584l6.961-1.643c-0.76,4.768-1.3,9.701-1.58,14.773l-7.302,0.609
	C18.593,95.539,19.245,90.936,20.171,86.584z M17.966,108.094c0-1.986,0.053-3.949,0.157-5.883l7.341-0.373
	c-0.086,2.068-0.144,4.148-0.144,6.256H17.966z M34.548,108.094c0-2.27,0.063-4.51,0.172-6.727l9.162-0.467
	c-0.09,2.379-0.14,4.775-0.14,7.193H34.548z M55.274,108.094c0-19.305,3.229-37.229,8.729-52.016
	c8.747,8.492,15.103,24.391,16.633,43.203v1.326l0.09-0.004c0.17,2.455,0.266,4.951,0.266,7.49H55.274z M85.4,108.094
	c0-2.588-0.091-5.135-0.248-7.646l27.895-0.99c0.18,2.836,0.282,5.713,0.282,8.637H85.4z M118.844,108.094
	c0-2.984-0.09-5.93-0.259-8.832l34.871-1.238c0.195,3.309,0.298,6.666,0.298,10.07H118.844z"/>
</svg>
