<?xml version="1.0" encoding="utf-8"?>
<!-- Generator: Adobe Illustrator 16.0.0, SVG Export Plug-In . SVG Version: 6.00 Build 0)  -->
<!DOCTYPE svg PUBLIC "-//W3C//DTD SVG 1.1//EN" "http://www.w3.org/Graphics/SVG/1.1/DTD/svg11.dtd">
<svg version="1.1" id="Шар_1" xmlns="http://www.w3.org/2000/svg" xmlns:xlink="http://www.w3.org/1999/xlink" x="0px" y="0px"
	 width="170.731px" height="146.341px" viewBox="0 0 170.731 146.341" enable-background="new 0 0 170.731 146.341"
	 xml:space="preserve">
<path fill="none" stroke="#FFFFFF" stroke-miterlimit="10" d="M5.065,89.261c1.023,7.955,11.973,17.682,18.174,22.074
	c9.008,6.383,19.347,10.215,30.251,11.759c11.497,1.628,23.838,0.724,34.983-2.546c9.195-2.701,20.534-9.85,28.578-15.071
	c15.207-9.871,30.12-21.002,44.314-32.302c1.424-1.135,2.725-2.459,3.771-3.953c0.383-0.546,0.733-1.121,1.043-1.72l-52.506,36.376
	c-9.138,6.331-19.53,10.019-30.5,11.502c-17.008,2.301-48.021-1.425-61.755-12.695L5.065,89.261z M114.877,33.984
	c-19.693,5.605-39.191,11.793-58.754,17.837c-0.605-0.1-1.046-1.227-0.427-1.968l58.775-17.269
	C114.471,32.584,115.896,33.021,114.877,33.984z M101.795,55.155c-3.066,0.953-5.044,1.478-8.087,2.603l7.599,3.267l1.278-0.454
	C102.422,58.997,102.157,57.38,101.795,55.155z M142.816,53.782c0.959-0.594,1.918-1.186,2.879-1.773l-23.525-7.458
	c-1.285-0.407-2.032,0.024-1.876,1.423L142.816,53.782z M140.209,55.416l-33.593-11.587c-0.448-0.185-0.952-0.23-1.416-0.09
	l-2.383,0.719l33.763,12.35c0.487,0.203,0.782,0.349,1.276,0.095C138.631,56.411,139.418,55.914,140.209,55.416z M119.061,68.704
	l-14.024-6.073c-0.621-4.596-0.789-9.391-1.542-13.853l30.198,10.774C128.385,62.935,124.47,65.482,119.061,68.704z M115.107,71.042
	c-1.407,0.817-2.719,1.496-4.072,2.223c-1.113,0.597-1.329,0.472-2.468-0.005L71.55,57.322c-0.982-0.423-1.142-0.924-0.002-1.385
	l3.393-1.371c0.845-0.341,1.727-0.038,2.524,0.295L115.107,71.042z M86.034,84.451c-9.89-1.547-12.701-8.424-13.81-17.424
	c-0.193-1.553-0.458-3.125-0.792-4.684l33.105,14.461C98.036,80.088,93.028,82.423,86.034,84.451z M53.083,86.001
	c5.715-2.069,11.663-4.964,16.948-7.752c0,0,1.63,5.583,6.835,8.514C68.976,88.208,60.888,88.07,53.083,86.001z M149.04,55.4
	c2.412-0.381,4.786-0.933,7.212-1.246c-0.488,0.794-0.856,1.658-1.072,2.574l-37.974,21.92c-5.141,2.968-1.497,11.045,4.601,7.515
	l38.327-22.188c0.789,0.184,1.589,0.28,2.391,0.296L112.29,99.076c-8.821,6.111-18.853,9.657-29.44,11.09
	C66.55,112.369,36.134,108.809,22.96,98L5.086,83.328c1.06-7.108,10.163-10.066,16.537-8.6c4.808,1.106,10.212,4.347,14.183,7.811
	c4.649,4.049,8.201,5.827,14.623,7.802c9.519,2.944,19.55,3.092,29.288,0.901c20.182-4.537,37.928-16.01,55.154-26.98
	C139.566,61.273,144.271,58.27,149.04,55.4z M22.587,82.22c0.354,0.627,0.615,1.346,0.643,2.072c0.109,2.97-3.07,3.472-5.384,2.816
	c-1.453-0.411-2.867-1.214-4-2.21c-1.17-1.03-2.341-2.561-2.401-4.182c-0.041-1.116,0.474-2.079,1.44-2.625
	C15.917,76.383,20.975,79.368,22.587,82.22z M20.633,83.321c1.098,1.956-0.596,2.077-2.178,1.628
	c-1.132-0.318-2.246-0.959-3.127-1.733c-0.492-0.436-0.963-0.954-1.286-1.524c-1.088-1.93,0.529-2.099,2.177-1.634
	C17.859,80.524,19.772,81.804,20.633,83.321z M163.901,52.297c3.343,0.394,5.163,2.78,5.83,5.754
	c-4.479,4.653-9.992,2.422-9.992,2.422l-39.55,22.897c-2.379,1.377-2.815-1.089-1.369-1.924l39.38-22.73
	C158.2,58.716,158.122,53.965,163.901,52.297z M39.694,80.133c8.979-4.345,18.587-8.978,27.871-12.466
	c0.278,2.199,0.588,4.422,1.098,6.568l0.125,0.507c-9.804,4.072-18.006,7.665-21.647,9.276
	C44.595,82.986,41.82,81.628,39.694,80.133z M16.175,69.339C35.624,62.894,54.81,55.688,74.4,49.602
	c14.349-4.459,28.752-8.731,43.175-12.936l0.63-0.183c3.606,0.506,5.738,2.919,6.277,6.239c-2.708-0.816-6.814-2.123-6.725,2.378
	l-9.913-3.418c-1.648-0.568-1.87-0.719-3.562-0.205l-3.607,1.092c-2.461,0.746-2.536,2.646-0.268,3.595
	c0.532,1.715,0.849,3.695,1.009,5.559c-4.105,1.075-8.434,2.382-12.833,3.833l-9.717-4.05c-1.446-0.6-2.867-0.921-4.38-0.308
	l-8.121,2.44c-1.802,0.726-1.289,2.408-0.812,3.934c0.589,1.892,1.068,3.914,1.421,5.905C52.742,69.127,40.477,74.734,35.866,76.88
	C30.381,72.526,23.148,68.738,16.175,69.339z"/>
</svg>
