<?xml version="1.0" encoding="utf-8"?>
<!-- Generator: Adobe Illustrator 16.0.0, SVG Export Plug-In . SVG Version: 6.00 Build 0)  -->
<!DOCTYPE svg PUBLIC "-//W3C//DTD SVG 1.1//EN" "http://www.w3.org/Graphics/SVG/1.1/DTD/svg11.dtd">
<svg version="1.1" id="Шар_1" xmlns="http://www.w3.org/2000/svg" xmlns:xlink="http://www.w3.org/1999/xlink" x="0px" y="0px"
	 width="425.197px" height="120.756px" viewBox="0 0 425.197 120.756" enable-background="new 0 0 425.197 120.756"
	 xml:space="preserve">
<g>
	<path fill="#FFFFFF" d="M58.588,101.576c-3.854,7.369-6.997,12.246-9.427,14.633c-2.43,2.387-5.468,3.581-9.114,3.581
		c-3.31,0-5.876-0.913-7.698-2.732c-1.823-1.82-3.333-4.513-4.527-8.07c-1.195-3.56-3.007-9.779-5.436-18.657L11.199,49.566
		c-0.42-1.716-1.111-2.96-2.076-3.735c-0.964-0.775-2.178-1.455-3.644-2.042c-1.467-0.586-2.537-1.223-3.205-1.915
		c-0.671-0.692-1.007-1.854-1.007-3.488c0-1.923,0.554-3.651,1.666-5.182c1.107-1.527,3.745-2.847,7.913-3.957
		c4.163-1.109,10.538-1.665,19.121-1.665c5.985,0,10.412,0.386,13.28,1.161c2.868,0.773,4.719,1.78,5.558,3.014
		c0.837,1.236,1.256,2.838,1.256,4.805c0,1.381-0.336,2.438-1.005,3.17c-0.668,0.734-1.654,1.438-2.951,2.106
		c-1.297,0.667-2.251,1.308-2.857,1.914c-0.607,0.608-0.911,1.56-0.911,2.857c1.05,6.574,2.518,13.641,4.406,21.195
		c1.888,7.557,3.46,11.335,4.721,11.335c0.965,0,2.622-2.458,4.972-7.378c2.351-4.92,4.53-10.216,6.545-15.89
		c2.015-5.671,3.023-9.218,3.023-10.644c0-0.961-0.285-1.832-0.848-2.606c-0.565-0.773-1.307-1.537-2.229-2.29
		c-0.919-0.754-1.6-1.488-2.039-2.199c-0.441-0.71-0.66-1.655-0.66-2.828c0-5.148,6.538-7.722,19.611-7.722
		c11.397,0,17.095,2.408,17.095,7.224c0,2.557-0.41,4.125-1.224,4.711c-0.818,0.586-2.421,1.332-4.809,2.232
		c-2.391,0.899-3.981,2.146-4.778,3.735L58.588,101.576z"/>
	<path fill="#FFFFFF" d="M149.62,67.531c0,5.023-1.606,9.64-4.815,13.849c-3.21,4.208-7.301,7.556-12.271,10.046
		c-4.971,2.492-9.933,3.737-14.881,3.737c-1.43,0-2.614,0.173-3.558,0.521c-0.943,0.35-1.415,1.107-1.415,2.28
		c0,1.823,0.838,3.28,2.517,4.365c1.676,1.085,3.46,1.628,5.349,1.628c2.642,0,4.94-0.421,6.891-1.27
		c1.952-0.848,4.449-2.107,7.491-3.778c3.042-1.673,5.063-2.511,6.071-2.511c1.343,0,2.538,0.582,3.588,1.74
		c1.049,1.158,1.574,2.395,1.574,3.699c0,3.037-1.292,5.577-3.872,7.62c-2.58,2.045-5.925,4.038-10.038,5.976
		c-2.178,0.913-4.095,1.658-5.75,2.235c-1.654,0.579-3.317,1.075-4.992,1.488s-3.498,0.743-5.464,0.994
		c-1.969,0.245-3.978,0.37-6.03,0.37c-5.319,0-10.147-0.816-14.481-2.453c-4.334-1.635-7.791-4.234-10.365-7.798
		c-2.574-3.564-3.862-8.177-3.862-13.841c0.293-6.5,1.886-12.478,4.776-17.926c2.89-5.453,6.734-10.16,11.531-14.123
		c4.796-3.962,10.055-6.981,15.774-9.057c5.72-2.075,11.534-3.115,17.441-3.115c3.602,0,6.798,0.505,9.582,1.507
		c2.785,1.005,5.018,2.658,6.693,4.962C148.78,60.983,149.62,63.933,149.62,67.531 M112.365,81.028c0,0.963,0.187,1.801,0.566,2.513
		c0.377,0.711,0.965,1.066,1.762,1.066c1.174,0,2.527-0.857,4.06-2.574c1.53-1.714,2.83-3.807,3.9-6.273
		c1.069-2.469,1.606-4.75,1.606-6.843c-0.084-1.086-0.356-2.017-0.817-2.792c-0.463-0.775-1.174-1.162-2.139-1.162
		c-2.352,0-4.428,2.021-6.232,6.057C113.265,75.059,112.365,78.395,112.365,81.028"/>
	<path fill="#FFFFFF" d="M211.207,96.799c1.549,0,2.775,0.759,3.675,2.271c0.902,1.518,1.352,3.084,1.352,4.704
		c0,3.362-3.121,6.722-9.363,10.084c-3.981,2.243-7.979,3.914-12.003,5.015c-4.021,1.097-8.314,1.648-12.878,1.648
		c-5.529,0-10.391-0.86-14.579-2.577c-4.191-1.72-7.478-4.385-9.866-7.986c-2.386-3.608-3.58-8.2-3.58-13.78
		c0-7.713,2.106-14.969,6.316-21.764c4.208-6.794,9.781-12.192,16.719-16.196c6.933-4.003,14.232-6.009,21.9-6.009
		c3.645,0,7.08,0.612,10.306,1.833c3.225,1.221,5.89,3.128,7.981,5.715c2.094,2.588,3.207,5.821,3.331,9.692
		c0,2.695-0.692,5.253-2.08,7.672c-1.384,2.424-3.234,4.389-5.543,5.904c-2.307,1.519-4.807,2.273-7.494,2.273
		c-2.393,0-4.576-0.717-6.55-2.152c-1.974-1.432-2.958-3.287-2.958-5.564c0-1.18,0.354-2.74,1.069-4.68
		c0.714-1.939,1.072-3.289,1.072-4.05c0-0.632-0.221-1.168-0.659-1.612c-0.439-0.442-0.992-0.663-1.66-0.663
		c-2.256,0-4.146,1.53-5.668,4.584c-1.527,3.06-2.641,6.727-3.351,11.005c-0.71,4.281-1.066,8.004-1.066,11.165
		c0,7.085,2.094,10.626,6.285,10.626c2.094,0,4.137-0.374,6.127-1.129c1.988-0.754,4.283-1.863,6.879-3.328
		c1.594-0.962,2.787-1.654,3.584-2.074C209.302,97.009,210.201,96.799,211.207,96.799"/>
	<path fill="#FFFFFF" d="M259.159,90.247c-0.25,1.295-0.376,2.509-0.376,3.637c0,1.673,0.354,3.013,1.067,4.015
		c0.711,1.004,1.677,1.504,2.893,1.504c0.92,0,1.695-0.134,2.322-0.406c0.627-0.27,1.485-0.678,2.576-1.223s1.909-0.818,2.453-0.818
		c2.306,0,3.457,1.551,3.457,4.652c0,2.302-1.205,4.546-3.614,6.726c-2.411,2.178-5.416,4.124-9.021,5.842
		c-3.601,1.719-7.206,3.093-10.808,4.119c-3.607,1.024-6.435,1.538-8.487,1.538c-4.022,0-7.176-1.005-9.461-3.013
		c-2.283-2.01-3.423-4.981-3.423-8.921c0-2.554,0.438-6.637,1.32-12.246l3.832-22.613c0.253-1.297,0.381-2.322,0.381-3.077
		c0-1.089-0.326-1.79-0.978-2.103c-0.651-0.314-1.98-0.473-3.99-0.473c-1.636,0-2.84-0.323-3.614-0.975
		c-0.775-0.646-1.161-1.787-1.161-3.424c0-5.567,2.702-8.602,8.108-9.105c1.969-0.253,3.277-0.816,3.928-1.696
		c0.648-0.879,1.434-2.888,2.356-6.031c0.795-2.51,1.613-4.5,2.451-5.966c0.838-1.467,2.032-2.575,3.583-3.328
		c2.052-0.962,4.567-1.675,7.542-2.138c2.974-0.459,5.822-0.691,8.548-0.691c3.268,0,4.901,1.586,4.901,4.761
		c-0.252,2.503-0.503,4.969-0.755,7.391c-0.252,2.419-0.377,3.942-0.377,4.572c0,1.878,1.194,2.815,3.583,2.815
		c0.462,0,1.193-0.022,2.199-0.072c1.005-0.048,1.781-0.074,2.327-0.074c2.134,0,3.205,0.754,3.205,2.257
		c0,0.963-0.211,2.805-0.629,5.521c-0.293,2.093-0.629,3.544-1.005,4.36c-0.378,0.814-1.343,1.224-2.894,1.224
		c-3.142,0-5.309,0.188-6.502,0.563c-1.195,0.377-2.022,1.162-2.484,2.352c-0.462,1.193-1.069,3.818-1.821,7.873L259.159,90.247z"/>
	<path fill="#FFFFFF" d="M279.644,94.982c0-6.078,1.104-11.73,3.313-16.951c2.213-5.221,5.31-9.77,9.29-13.648
		c3.981-3.878,8.631-6.878,13.95-8.997c5.315-2.116,10.98-3.177,16.984-3.177c5.439,0,10.389,0.976,14.85,2.925
		c4.455,1.951,7.979,4.845,10.575,8.682c2.594,3.838,3.893,8.48,3.893,13.932c0,6.037-1.116,11.689-3.347,16.953
		c-2.229,5.264-5.339,9.832-9.316,13.715c-3.986,3.878-8.612,6.865-13.891,8.962c-5.277,2.095-10.935,3.145-16.982,3.145
		c-5.442,0-10.389-0.976-14.847-2.924c-4.457-1.951-7.984-4.843-10.582-8.684C280.941,105.078,279.644,100.436,279.644,94.982
		 M311.504,78.121c-0.828,4.236-1.456,8.318-1.892,12.241c-0.434,3.927-0.65,7.44-0.65,10.546c0,3.986,1.366,5.98,4.097,5.98
		c2.316,0,3.901-1.036,4.748-3.115c0.848-2.078,1.626-4.922,2.333-8.533c2.024-10.196,3.041-17.876,3.041-23.04
		c0-4.236-1.387-6.356-4.158-6.356c-1.287,0-2.364,0.42-3.23,1.258c-0.869,0.841-1.593,1.953-2.177,3.336
		c-0.576,1.386-1.013,2.72-1.3,4C312.022,75.717,311.751,76.945,311.504,78.121"/>
	<path fill="#FFFFFF" d="M384.871,104.703c0,1.009,0.034,1.751,0.091,2.222c0.062,0.476,0.242,0.912,0.552,1.304
		c0.304,0.399,0.842,0.811,1.605,1.237c1.007,0.456,1.77,0.932,2.293,1.421c0.516,0.489,0.779,1.236,0.779,2.244
		c0,2.655-1.862,4.382-5.574,5.174c-3.709,0.794-8.069,1.191-13.079,1.191c-5.135,0-9.371-0.412-12.716-1.234
		c-3.343-0.824-5.014-2.597-5.014-5.311c0-1.831,0.929-3.023,2.793-3.571c1.434-0.488,2.336-0.938,2.703-1.35
		c0.365-0.413,0.93-1.52,1.694-3.319c0.519-1.283,1.066-3.289,1.647-6.02c0.585-2.73,1.139-5.859,1.673-9.384
		c0.538-3.525,0.977-7.151,1.331-10.874c0.353-3.722,0.524-6.836,0.524-9.338c0-1.893-0.06-3.173-0.184-3.846
		c-0.123-0.73-0.331-1.195-0.642-1.395c-0.307-0.199-0.901-0.42-1.784-0.664c-1.5-0.427-2.498-0.838-3.002-1.236
		c-0.505-0.395-0.754-1.266-0.754-2.607c0-3.996,3.19-6.131,9.577-6.404h30.833c3.94,0,7.359,0.473,10.247,1.418
		c2.884,0.943,5.211,2.492,6.985,4.639c1.771,2.15,2.795,4.946,3.067,8.389c0,2.835-0.449,5.212-1.352,7.132
		c-0.901,1.92-1.855,3.345-2.862,4.273c-1.008,0.932-2.171,1.89-3.481,2.879c-1.316,0.993-1.969,1.719-1.969,2.172
		c0,0.43,0.071,0.766,0.228,1.01c0.15,0.242,0.357,0.464,0.617,0.66c0.263,0.197,0.606,0.449,1.031,0.754
		c1.159,0.796,2.047,1.482,2.659,2.063c0.608,0.584,1.099,1.438,1.464,2.566c0.49,1.559,0.819,3.324,0.99,5.293
		c0.167,1.969,0.326,3.996,0.482,6.072c0.15,2.078,0.411,3.668,0.775,4.768c0.214,0.732,0.496,1.26,0.851,1.58
		c0.348,0.32,0.875,0.604,1.579,0.847c1.22,0.491,2.136,0.933,2.75,1.333c0.608,0.397,0.915,1.024,0.915,1.877
		c0,1.681-0.765,3.026-2.292,4.034c-1.53,1.008-3.314,1.727-5.362,2.151c-2.046,0.427-3.94,0.643-5.681,0.643
		c-4.581,0-8.045-0.81-10.381-2.426c-2.336-1.618-3.871-3.594-4.604-5.931c-0.735-2.337-1.296-5.427-1.694-9.274
		c-0.4-3.848-0.905-6.686-1.514-8.518c-0.674-2.017-2.369-3.024-5.084-3.024c-1.162,0-1.902,0.146-2.22,0.437
		c-0.323,0.291-0.549,1.029-0.667,2.223L384.871,104.703z M387.394,77.367c0,1.277,0.137,2.143,0.411,2.6
		c0.276,0.456,0.885,0.683,1.835,0.683c2.439,0,4.145-1.276,5.107-3.828c0.962-2.551,1.442-5.332,1.442-8.342
		c0-1.974-0.354-3.495-1.054-4.558s-2.002-1.598-3.894-1.598c-0.825,0-1.417,0.215-1.765,0.639c-0.352,0.428-0.59,1.033-0.711,1.825
		c-0.12,0.79-0.214,1.534-0.273,2.233L387.394,77.367z"/>
	<path fill="#FFFFFF" d="M98.203,11.324c0,2.271-1.812,4.079-4.082,4.079c-0.117,0-0.146-0.015-0.317-0.031
		c-0.305-0.046-0.608-0.116-0.889-0.163c-14.18-2.855-28.85-4.352-43.873-4.352c-14.951,0-29.574,1.475-43.708,4.328
		c-0.281,0.048-0.804,0.159-0.983,0.187c-0.083,0.018-0.164,0.023-0.233,0.023C1.849,15.395,0,13.546,0,11.278
		c0-1.662,1.006-3.112,2.433-3.744C2.713,7.44,3.018,7.347,3.299,7.253C17.689,2.55,33.085,0,49.042,0
		c16.023,0,31.43,2.565,45.877,7.313c0.271,0.055,0.532,0.136,0.779,0.243C97.175,8.166,98.203,9.616,98.203,11.324"/>
</g>
</svg>
